<svg xmlns="http://www.w3.org/2000/svg" width="1200" height="120" viewBox="0 0 1200 120" preserveAspectRatio="none" aria-hidden="true">
  <defs>
    <linearGradient id="wave" x1="0" y1="0" x2="1" y2="0">
      <stop offset="0" stop-color="#FDCBF2"/>
      <stop offset="0.3" stop-color="#BA9BF8"/>
      <stop offset="0.65" stop-color="#7030EF"/>
      <stop offset="1" stop-color="#0034FE"/>
    </linearGradient>
  </defs>
  <path d="M0 0L1200 0L1200 93.3L1188 92.4L1176 91.5L1164 90.6L1152 89.8L1140 89.1L1128 88.5L1116 88.0L1104 87.5L1092 87.1L1080 86.9L1068 86.7L1056 86.5L1044 86.5L1032 86.4L1020 86.5L1008 86.5L996 86.5L984 86.5L972 86.4L960 86.3L948 86.1L936 85.8L924 85.5L912 84.9L900 84.3L888 83.5L876 82.6L864 81.6L852 80.4L840 79.1L828 77.6L816 76.1L804 74.5L792 72.8L780 71.0L768 69.2L756 67.4L744 65.6L732 63.9L720 62.3L708 60.7L696 59.3L684 58.0L672 56.9L660 56.0L648 55.3L636 54.8L624 54.6L612 54.6L600 54.9L588 55.4L576 56.1L564 57.1L552 58.3L540 59.8L528 61.4L516 63.2L504 65.1L492 67.2L480 69.4L468 71.6L456 73.8L444 76.1L432 78.4L420 80.6L408 82.7L396 84.7L384 86.6L372 88.4L360 90.0L348 91.4L336 92.7L324 93.8L312 94.6L300 95.3L288 95.8L276 96.1L264 96.2L252 96.2L240 96.1L228 95.8L216 95.4L204 94.9L192 94.4L180 93.8L168 93.2L156 92.6L144 92.0L132 91.5L120 91.0L108 90.5L96 90.1L84 89.8L72 89.6L60 89.5L48 89.4L36 89.4L24 89.5L12 89.7L0 89.9Z" fill="url(#wave)" opacity="0.35">
    <animate attributeName="d" dur="18s" repeatCount="indefinite" calcMode="spline"
      keyTimes="0;0.333;0.667;1" keySplines="0.45 0 0.55 1;0.45 0 0.55 1;0.45 0 0.55 1" values="M0 0L1200 0L1200 93.3L1188 92.4L1176 91.5L1164 90.6L1152 89.8L1140 89.1L1128 88.5L1116 88.0L1104 87.5L1092 87.1L1080 86.9L1068 86.7L1056 86.5L1044 86.5L1032 86.4L1020 86.5L1008 86.5L996 86.5L984 86.5L972 86.4L960 86.3L948 86.1L936 85.8L924 85.5L912 84.9L900 84.3L888 83.5L876 82.6L864 81.6L852 80.4L840 79.1L828 77.6L816 76.1L804 74.5L792 72.8L780 71.0L768 69.2L756 67.4L744 65.6L732 63.9L720 62.3L708 60.7L696 59.3L684 58.0L672 56.9L660 56.0L648 55.3L636 54.8L624 54.6L612 54.6L600 54.9L588 55.4L576 56.1L564 57.1L552 58.3L540 59.8L528 61.4L516 63.2L504 65.1L492 67.2L480 69.4L468 71.6L456 73.8L444 76.1L432 78.4L420 80.6L408 82.7L396 84.7L384 86.6L372 88.4L360 90.0L348 91.4L336 92.7L324 93.8L312 94.6L300 95.3L288 95.8L276 96.1L264 96.2L252 96.2L240 96.1L228 95.8L216 95.4L204 94.9L192 94.4L180 93.8L168 93.2L156 92.6L144 92.0L132 91.5L120 91.0L108 90.5L96 90.1L84 89.8L72 89.6L60 89.5L48 89.4L36 89.4L24 89.5L12 89.7L0 89.9Z;M0 0L1200 0L1200 79.0L1188 79.9L1176 80.6L1164 81.3L1152 81.8L1140 82.2L1128 82.6L1116 82.8L1104 83.0L1092 83.1L1080 83.2L1068 83.2L1056 83.3L1044 83.4L1032 83.5L1020 83.7L1008 83.9L996 84.2L984 84.6L972 85.1L960 85.7L948 86.4L936 87.2L924 88.1L912 89.1L900 90.1L888 91.2L876 92.3L864 93.5L852 94.7L840 95.8L828 97.0L816 98.0L804 99.0L792 99.8L780 100.5L768 101.1L756 101.5L744 101.7L732 101.7L720 101.5L708 101.0L696 100.4L684 99.5L672 98.4L660 97.1L648 95.5L636 93.8L624 91.9L612 89.9L600 87.7L588 85.5L576 83.1L564 80.8L552 78.4L540 76.0L528 73.6L516 71.4L504 69.2L492 67.2L480 65.3L468 63.6L456 62.1L444 60.7L432 59.6L420 58.8L408 58.1L396 57.7L384 57.5L372 57.6L360 57.8L348 58.2L336 58.9L324 59.6L312 60.6L300 61.6L288 62.7L276 63.9L264 65.2L252 66.5L240 67.7L228 69.0L216 70.2L204 71.4L192 72.4L180 73.4L168 74.3L156 75.1L144 75.8L132 76.4L120 76.9L108 77.3L96 77.6L84 77.8L72 78.0L60 78.1L48 78.2L36 78.3L24 78.4L12 78.5L0 78.6Z;M0 0L1200 0L1200 67.7L1188 67.8L1176 67.9L1164 68.1L1152 68.4L1140 68.6L1128 68.9L1116 69.3L1104 69.5L1092 69.8L1080 70.0L1068 70.1L1056 70.2L1044 70.1L1032 70.1L1020 69.9L1008 69.6L996 69.3L984 68.9L972 68.5L960 68.0L948 67.5L936 67.0L924 66.5L912 66.0L900 65.6L888 65.3L876 65.0L864 64.9L852 64.9L840 65.1L828 65.4L816 65.9L804 66.6L792 67.4L780 68.5L768 69.7L756 71.1L744 72.7L732 74.4L720 76.3L708 78.2L696 80.3L684 82.5L672 84.7L660 86.9L648 89.1L636 91.3L624 93.4L612 95.5L600 97.4L588 99.1L576 100.7L564 102.1L552 103.3L540 104.2L528 105.0L516 105.4L504 105.7L492 105.6L480 105.4L468 104.8L456 104.1L444 103.1L432 102.0L420 100.7L408 99.2L396 97.6L384 95.8L372 94.0L360 92.2L348 90.3L336 88.4L324 86.6L312 84.8L300 83.1L288 81.5L276 80.0L264 78.6L252 77.3L240 76.2L228 75.2L216 74.4L204 73.7L192 73.2L180 72.8L168 72.5L156 72.3L144 72.2L132 72.1L120 72.2L108 72.2L96 72.3L84 72.4L72 72.4L60 72.4L48 72.4L36 72.3L24 72.1L12 71.9L0 71.5Z;M0 0L1200 0L1200 93.3L1188 92.4L1176 91.5L1164 90.6L1152 89.8L1140 89.1L1128 88.5L1116 88.0L1104 87.5L1092 87.1L1080 86.9L1068 86.7L1056 86.5L1044 86.5L1032 86.4L1020 86.5L1008 86.5L996 86.5L984 86.5L972 86.4L960 86.3L948 86.1L936 85.8L924 85.5L912 84.9L900 84.3L888 83.5L876 82.6L864 81.6L852 80.4L840 79.1L828 77.6L816 76.1L804 74.5L792 72.8L780 71.0L768 69.2L756 67.4L744 65.6L732 63.9L720 62.3L708 60.7L696 59.3L684 58.0L672 56.9L660 56.0L648 55.3L636 54.8L624 54.6L612 54.6L600 54.9L588 55.4L576 56.1L564 57.1L552 58.3L540 59.8L528 61.4L516 63.2L504 65.1L492 67.2L480 69.4L468 71.6L456 73.8L444 76.1L432 78.4L420 80.6L408 82.7L396 84.7L384 86.6L372 88.4L360 90.0L348 91.4L336 92.7L324 93.8L312 94.6L300 95.3L288 95.8L276 96.1L264 96.2L252 96.2L240 96.1L228 95.8L216 95.4L204 94.9L192 94.4L180 93.8L168 93.2L156 92.6L144 92.0L132 91.5L120 91.0L108 90.5L96 90.1L84 89.8L72 89.6L60 89.5L48 89.4L36 89.4L24 89.5L12 89.7L0 89.9Z"/>
  </path>
  <path d="M0 0L1200 0L1200 68.1L1188 67.4L1176 66.7L1164 65.9L1152 64.9L1140 63.9L1128 62.8L1116 61.6L1104 60.4L1092 59.0L1080 57.6L1068 56.1L1056 54.6L1044 53.0L1032 51.4L1020 49.8L1008 48.2L996 46.6L984 45.1L972 43.6L960 42.2L948 40.9L936 39.7L924 38.7L912 37.8L900 37.1L888 36.5L876 36.1L864 35.9L852 35.9L840 36.1L828 36.5L816 37.2L804 38.0L792 39.0L780 40.2L768 41.5L756 43.1L744 44.8L732 46.6L720 48.5L708 50.5L696 52.6L684 54.8L672 57.0L660 59.2L648 61.3L636 63.5L624 65.6L612 67.7L600 69.7L588 71.5L576 73.3L564 74.9L552 76.4L540 77.8L528 79.0L516 80.1L504 81.0L492 81.7L480 82.3L468 82.8L456 83.1L444 83.3L432 83.4L420 83.3L408 83.2L396 83.0L384 82.7L372 82.3L360 81.9L348 81.5L336 81.1L324 80.6L312 80.2L300 79.8L288 79.4L276 79.0L264 78.6L252 78.3L240 78.0L228 77.8L216 77.6L204 77.4L192 77.3L180 77.2L168 77.1L156 76.9L144 76.8L132 76.7L120 76.5L108 76.3L96 76.0L84 75.7L72 75.2L60 74.7L48 74.1L36 73.4L24 72.6L12 71.7L0 70.7Z" fill="url(#wave)" opacity="1">
    <animate attributeName="d" dur="14s" repeatCount="indefinite" calcMode="spline"
      keyTimes="0;0.333;0.667;1" keySplines="0.45 0 0.55 1;0.45 0 0.55 1;0.45 0 0.55 1" values="M0 0L1200 0L1200 68.1L1188 67.4L1176 66.7L1164 65.9L1152 64.9L1140 63.9L1128 62.8L1116 61.6L1104 60.4L1092 59.0L1080 57.6L1068 56.1L1056 54.6L1044 53.0L1032 51.4L1020 49.8L1008 48.2L996 46.6L984 45.1L972 43.6L960 42.2L948 40.9L936 39.7L924 38.7L912 37.8L900 37.1L888 36.5L876 36.1L864 35.9L852 35.9L840 36.1L828 36.5L816 37.2L804 38.0L792 39.0L780 40.2L768 41.5L756 43.1L744 44.8L732 46.6L720 48.5L708 50.5L696 52.6L684 54.8L672 57.0L660 59.2L648 61.3L636 63.5L624 65.6L612 67.7L600 69.7L588 71.5L576 73.3L564 74.9L552 76.4L540 77.8L528 79.0L516 80.1L504 81.0L492 81.7L480 82.3L468 82.8L456 83.1L444 83.3L432 83.4L420 83.3L408 83.2L396 83.0L384 82.7L372 82.3L360 81.9L348 81.5L336 81.1L324 80.6L312 80.2L300 79.8L288 79.4L276 79.0L264 78.6L252 78.3L240 78.0L228 77.8L216 77.6L204 77.4L192 77.3L180 77.2L168 77.1L156 76.9L144 76.8L132 76.7L120 76.5L108 76.3L96 76.0L84 75.7L72 75.2L60 74.7L48 74.1L36 73.4L24 72.6L12 71.7L0 70.7Z;M0 0L1200 0L1200 47.8L1188 47.7L1176 47.6L1164 47.5L1152 47.5L1140 47.6L1128 47.8L1116 48.1L1104 48.4L1092 48.9L1080 49.6L1068 50.3L1056 51.2L1044 52.2L1032 53.4L1020 54.7L1008 56.1L996 57.7L984 59.4L972 61.1L960 63.0L948 64.9L936 67.0L924 69.0L912 71.1L900 73.2L888 75.3L876 77.3L864 79.3L852 81.2L840 83.1L828 84.8L816 86.4L804 87.8L792 89.1L780 90.2L768 91.1L756 91.8L744 92.4L732 92.7L720 92.8L708 92.7L696 92.4L684 91.9L672 91.2L660 90.4L648 89.3L636 88.1L624 86.8L612 85.3L600 83.8L588 82.1L576 80.4L564 78.6L552 76.8L540 75.0L528 73.2L516 71.4L504 69.7L492 68.0L480 66.4L468 64.8L456 63.4L444 62.0L432 60.8L420 59.6L408 58.6L396 57.6L384 56.8L372 56.1L360 55.4L348 54.9L336 54.4L324 54.0L312 53.7L300 53.4L288 53.1L276 52.9L264 52.7L252 52.4L240 52.2L228 52.0L216 51.7L204 51.4L192 51.1L180 50.8L168 50.4L156 49.9L144 49.4L132 48.9L120 48.4L108 47.8L96 47.2L84 46.7L72 46.1L60 45.5L48 45.0L36 44.5L24 44.1L12 43.8L0 43.5Z;M0 0L1200 0L1200 76.1L1188 76.9L1176 77.8L1164 78.6L1152 79.5L1140 80.5L1128 81.4L1116 82.3L1104 83.2L1092 84.1L1080 84.9L1068 85.6L1056 86.2L1044 86.8L1032 87.2L1020 87.5L1008 87.7L996 87.7L984 87.6L972 87.3L960 86.8L948 86.1L936 85.3L924 84.3L912 83.1L900 81.8L888 80.2L876 78.6L864 76.8L852 74.8L840 72.8L828 70.7L816 68.5L804 66.2L792 63.9L780 61.6L768 59.3L756 57.1L744 54.9L732 52.7L720 50.7L708 48.8L696 47.0L684 45.3L672 43.8L660 42.5L648 41.3L636 40.3L624 39.6L612 39.0L600 38.6L588 38.3L576 38.3L564 38.4L552 38.7L540 39.2L528 39.8L516 40.5L504 41.3L492 42.3L480 43.3L468 44.4L456 45.5L444 46.7L432 47.9L420 49.1L408 50.2L396 51.4L384 52.5L372 53.6L360 54.6L348 55.6L336 56.5L324 57.4L312 58.1L300 58.9L288 59.5L276 60.1L264 60.7L252 61.2L240 61.7L228 62.2L216 62.7L204 63.1L192 63.6L180 64.1L168 64.6L156 65.1L144 65.7L132 66.4L120 67.1L108 67.9L96 68.8L84 69.7L72 70.7L60 71.7L48 72.9L36 74.0L24 75.3L12 76.6L0 77.9Z;M0 0L1200 0L1200 68.1L1188 67.4L1176 66.7L1164 65.9L1152 64.9L1140 63.9L1128 62.8L1116 61.6L1104 60.4L1092 59.0L1080 57.6L1068 56.1L1056 54.6L1044 53.0L1032 51.4L1020 49.8L1008 48.2L996 46.6L984 45.1L972 43.6L960 42.2L948 40.9L936 39.7L924 38.7L912 37.8L900 37.1L888 36.5L876 36.1L864 35.9L852 35.9L840 36.1L828 36.5L816 37.2L804 38.0L792 39.0L780 40.2L768 41.5L756 43.1L744 44.8L732 46.6L720 48.5L708 50.5L696 52.6L684 54.8L672 57.0L660 59.2L648 61.3L636 63.5L624 65.6L612 67.7L600 69.7L588 71.5L576 73.3L564 74.9L552 76.4L540 77.8L528 79.0L516 80.1L504 81.0L492 81.7L480 82.3L468 82.8L456 83.1L444 83.3L432 83.4L420 83.3L408 83.2L396 83.0L384 82.7L372 82.3L360 81.9L348 81.5L336 81.1L324 80.6L312 80.2L300 79.8L288 79.4L276 79.0L264 78.6L252 78.3L240 78.0L228 77.8L216 77.6L204 77.4L192 77.3L180 77.2L168 77.1L156 76.9L144 76.8L132 76.7L120 76.5L108 76.3L96 76.0L84 75.7L72 75.2L60 74.7L48 74.1L36 73.4L24 72.6L12 71.7L0 70.7Z"/>
  </path>
</svg>
